<svg xmlns="http://www.w3.org/2000/svg" width="29.061" height="29.061" viewBox="0 0 29.061 29.061">
  <path id="goals" d="M26.928,6.95,28.337,5.54a.851.851,0,0,0-.531-1.45l-2.615-.221-.221-2.615a.851.851,0,0,0-1.45-.53L22.112,2.133A14.531,14.531,0,0,0,4.256,24.805,14.531,14.531,0,0,0,26.928,6.95ZM23.556,4.729a.852.852,0,0,0,.777.777l1.5.127L23.8,7.669,21.58,7.482l-.187-2.221,2.036-2.036Zm-6.13,9.8a2.9,2.9,0,1,1-1.541-2.558l-1.956,1.956a.851.851,0,1,0,1.2,1.2l1.956-1.956A2.875,2.875,0,0,1,17.425,14.531Zm-.3-3.8a4.6,4.6,0,1,0,1.2,1.2l2.431-2.431a8.013,8.013,0,1,1-1.2-1.2ZM23.6,23.6A12.828,12.828,0,1,1,5.46,5.46,12.834,12.834,0,0,1,20.869,3.376l-.96.96a.851.851,0,0,0-.249.58c0,.031,0,.062,0,.093l.115,1.358a9.714,9.714,0,1,0,2.916,2.916l1.358.115.072,0h.012l.034,0,.055,0,.034-.005.053-.01.033-.008.051-.016.033-.012.049-.021.031-.015.048-.027.028-.017.049-.035.023-.017a.845.845,0,0,0,.067-.06l.96-.96A12.834,12.834,0,0,1,23.6,23.6Zm0,0"/>
</svg>
