<svg id="money" xmlns="http://www.w3.org/2000/svg" width="29.061" height="29.061" viewBox="0 0 29.061 29.061">
  <path id="Path_4" data-name="Path 4" d="M75.531,61A14.531,14.531,0,1,0,90.061,75.531,14.547,14.547,0,0,0,75.531,61Zm0,26.826a12.3,12.3,0,1,1,12.3-12.3A12.309,12.309,0,0,1,75.531,87.826Z" transform="translate(-61 -61)"/>
  <path id="Path_5" data-name="Path 5" d="M189.942,127.554a1.118,1.118,0,0,0,2.235,0,4.122,4.122,0,0,0-1.757-3.265,6.143,6.143,0,0,0-2.714-1.116v-1.207a1.118,1.118,0,0,0-2.236,0v1.207a6.142,6.142,0,0,0-2.714,1.116,3.913,3.913,0,0,0,0,6.531,6.143,6.143,0,0,0,2.714,1.116v4.427c-1.288-.315-2.236-1.15-2.236-2.1a1.118,1.118,0,1,0-2.235,0,4.123,4.123,0,0,0,1.757,3.265,6.143,6.143,0,0,0,2.714,1.116v1.218a1.118,1.118,0,0,0,2.236,0v-1.218a6.142,6.142,0,0,0,2.714-1.116,3.913,3.913,0,0,0,0-6.531,6.143,6.143,0,0,0-2.714-1.116v-4.427C188.994,125.766,189.942,126.6,189.942,127.554Zm-6.706,0c0-.952.948-1.788,2.236-2.1v4.2C184.183,129.341,183.235,128.505,183.235,127.554Zm6.706,6.706c0,.952-.948,1.788-2.235,2.1v-4.2C188.994,132.473,189.942,133.308,189.942,134.26Z" transform="translate(-172.058 -116.387)"/>
</svg>
